<svg width="16" height="16" viewBox="0 0 16 16" fill="none" xmlns="http://www.w3.org/2000/svg">
<path fill-rule="evenodd" clip-rule="evenodd" d="M2.71251 2.11445C2.33001 2.11445 2.08749 2.41283 2.11707 2.70464C2.70134 8.60456 7.39525 13.2985 13.2952 13.8827C13.587 13.9123 13.8854 13.6698 13.8854 13.2873V10.9482C13.8854 10.6656 13.7046 10.4146 13.4358 10.3252L11.1618 9.56674C10.9259 9.48853 10.6656 9.54965 10.4895 9.72578L10.1254 10.0899C9.69028 10.525 8.99625 10.6084 8.47113 10.2489C7.22765 9.39849 6.50405 8.67948 5.73181 7.51751C5.38282 6.99172 5.47418 6.30952 5.90203 5.88233L6.27402 5.51034C6.45016 5.3342 6.51128 5.07394 6.43241 4.838L5.67463 2.56399C5.58525 2.29519 5.33419 2.11445 5.05158 2.11445H2.71251ZM0.809186 2.83477C0.694829 1.682 1.64321 0.799999 2.71251 0.799999H5.05158C5.90006 0.799999 6.65324 1.34287 6.92139 2.14797L7.67983 4.42197C7.91577 5.13046 7.73175 5.9119 7.20334 6.43965L6.83726 6.80573C7.50106 7.80208 8.09782 8.40016 9.20065 9.15597L9.56015 8.79647C10.0879 8.26806 10.8693 8.08403 11.5778 8.31998L13.8518 9.07842C14.6569 9.34657 15.1998 10.0997 15.1998 10.9482V13.2873C15.1998 14.3566 14.3178 15.305 13.165 15.1906C6.64207 14.5446 1.45524 9.35774 0.809186 2.83477ZM9.942 1.45723C9.942 1.09444 10.2364 0.799999 10.5992 0.799999C13.1401 0.799999 15.1998 2.85975 15.1998 5.40058C15.1998 5.76337 14.9054 6.05781 14.5426 6.05781C14.1798 6.05781 13.8854 5.76337 13.8854 5.40058C13.8854 3.58598 12.4138 2.11445 10.5992 2.11445C10.2364 2.11445 9.942 1.82001 9.942 1.45723ZM9.942 4.08613C9.942 3.72334 10.2364 3.4289 10.5992 3.4289C11.6882 3.4289 12.5709 4.31156 12.5709 5.40058C12.5709 5.76337 12.2765 6.05781 11.9137 6.05781C11.5509 6.05781 11.2564 5.76337 11.2564 5.40058C11.2564 5.03779 10.962 4.74335 10.5992 4.74335C10.2364 4.74335 9.942 4.44892 9.942 4.08613Z" fill="#009988"/>
</svg>
