<svg width="22" height="22" viewBox="0 0 22 22" fill="none" xmlns="http://www.w3.org/2000/svg">
<path fill-rule="evenodd" clip-rule="evenodd" d="M8.83784 16.6757C4.50912 16.6757 1 13.1666 1 8.83784C1 4.50912 4.50912 1 8.83784 1C13.1666 1 16.6757 4.50912 16.6757 8.83784C16.6757 10.7102 16.0192 12.4291 14.9238 13.7771L20.7625 19.6159C21.0792 19.9325 21.0792 20.4459 20.7625 20.7625C20.4459 21.0792 19.9325 21.0792 19.6159 20.7625L13.7771 14.9238C12.4291 16.0192 10.7102 16.6757 8.83784 16.6757ZM8.83784 15.0541C12.271 15.0541 15.0541 12.271 15.0541 8.83784C15.0541 5.40472 12.271 2.62162 8.83784 2.62162C5.40472 2.62162 2.62162 5.40472 2.62162 8.83784C2.62162 12.271 5.40472 15.0541 8.83784 15.0541Z" fill="#009988"/>
</svg>
