<svg width="16" height="16" viewBox="0 0 16 16" fill="none" xmlns="http://www.w3.org/2000/svg">
<path d="M1.07812 6.52561C6.00156 4.35965 12.3729 1.71891 13.2524 1.35341C15.5593 0.396769 16.2672 0.580106 15.9143 2.69866C15.6608 4.22137 14.9294 9.26272 14.3465 12.4006C14.0006 14.2614 13.2245 14.4819 12.0043 13.6769C11.4174 13.2895 8.45545 11.3307 7.81259 10.8708C7.22576 10.4517 6.41642 9.94749 7.43143 8.95442C7.79262 8.60068 10.1603 6.33992 12.005 4.58021C12.2467 4.34908 11.9431 3.96948 11.6642 4.15477C9.17782 5.80362 5.73047 8.09219 5.29172 8.39031C4.62889 8.84042 3.99231 9.04687 2.84959 8.71859C1.98618 8.47062 1.14276 8.17485 0.814478 8.06203C-0.449681 7.62797 -0.149605 7.06582 1.07812 6.52561Z" fill="#009988"/>
</svg>
