<svg width="16" height="16" viewBox="0 0 16 16" fill="none" xmlns="http://www.w3.org/2000/svg">
<path fill-rule="evenodd" clip-rule="evenodd" d="M8.01015 0C3.60493 0 0.0187893 3.58305 0.0171892 7.98828C0.0163891 9.39641 0.385212 10.7711 1.08448 11.9824L0 16.0016L4.18635 15.0124C5.35366 15.6493 6.66774 15.9836 8.00547 15.9844H8.00859C12.413 15.9844 15.9976 12.4005 16 7.99609C16.0016 5.86068 15.1712 3.85296 13.6623 2.34242C12.1533 0.832669 10.148 0.000800078 8.01015 0ZM8.00859 1.60016C9.71756 1.60096 11.3236 2.26726 12.5309 3.47378C13.7382 4.68189 14.4014 6.28716 14.3998 7.99453C14.3982 11.5181 11.5322 14.3842 8.00703 14.3842C6.94053 14.3834 5.8841 14.1156 4.95361 13.6076L4.41449 13.3138L3.81912 13.4544L2.24397 13.8263L2.62838 12.3981L2.80184 11.7574L2.47055 11.1823C1.9121 10.2158 1.61654 9.11079 1.61735 7.98828C1.61895 4.46634 4.48585 1.60016 8.00859 1.60016ZM4.64889 4.55044C4.83211 4.35042 5.04814 4.30042 5.18175 4.30042H5.19064C5.32047 4.30042 5.44962 4.30041 5.56304 4.30511C5.70546 4.31071 5.86347 4.31842 6.01309 4.65045C6.11597 4.87941 6.28962 5.30664 6.42716 5.64506C6.52705 5.89084 6.6079 6.08977 6.62877 6.13185C6.67837 6.23186 6.71237 6.34907 6.64596 6.48188C6.63693 6.49993 6.6285 6.51707 6.62042 6.53349C6.56901 6.63793 6.53167 6.71379 6.44594 6.81473C6.41152 6.85493 6.37605 6.89831 6.34068 6.94157C6.27328 7.024 6.20624 7.10599 6.14747 7.16476C6.04746 7.26397 5.94239 7.37339 6.0584 7.57261C6.17521 7.77263 6.57579 8.42515 7.16945 8.954C7.80648 9.52158 8.35982 9.76272 8.64171 9.88556C8.69757 9.90991 8.74277 9.92961 8.77585 9.94628C8.97587 10.0463 9.0919 10.0283 9.20871 9.89471C9.32552 9.7619 9.70721 9.31341 9.84002 9.11339C9.97283 8.91337 10.1068 8.94697 10.2901 9.01338C10.4733 9.07978 11.455 9.56187 11.6543 9.66188C11.6938 9.68164 11.7307 9.69943 11.7649 9.7159C11.9037 9.7828 11.9973 9.82794 12.0371 9.89471C12.0867 9.97712 12.0863 10.3784 11.9199 10.8448C11.7535 11.3113 10.9378 11.7605 10.5713 11.7933C10.5365 11.7965 10.5018 11.8006 10.4662 11.8048C10.1275 11.8447 9.70179 11.8949 8.1758 11.2933C6.29728 10.5528 5.05902 8.71623 4.80624 8.3413C4.78589 8.31111 4.77192 8.29039 4.76453 8.28049L4.76258 8.2779C4.65561 8.13503 3.94882 7.19103 3.94882 6.21467C3.94882 5.29464 4.40204 4.81304 4.61012 4.59193C4.62424 4.57692 4.63724 4.56311 4.64889 4.55044Z" fill="#009988"/>
</svg>
